<?xml version="1.0" encoding="UTF-8"?>
<svg version="1.1" xmlns="http://www.w3.org/2000/svg" width="512" height="512">
<path d="M0 0 C1.76414976 -0.00551503 1.76414976 -0.00551503 3.56393892 -0.01114148 C6.81597395 -0.0202299 10.06797932 -0.02486956 13.32002485 -0.02753079 C16.83293582 -0.03145009 20.3458324 -0.04102744 23.85873413 -0.04974365 C32.33800221 -0.06946556 40.81727141 -0.07957028 49.29655668 -0.08847144 C53.29818245 -0.09286262 57.29980692 -0.09822739 61.30143166 -0.10346031 C74.61957493 -0.12047071 87.9377174 -0.1349612 101.25586987 -0.14220905 C104.70860991 -0.14411869 108.16134995 -0.14603905 111.61408997 -0.147995 C112.90120031 -0.14872061 112.90120031 -0.14872061 114.21431289 -0.14946087 C128.09049683 -0.15774744 141.96659418 -0.18306193 155.84274038 -0.21557567 C170.11737692 -0.2487479 184.39196962 -0.26666708 198.66664487 -0.26985329 C206.66975706 -0.27200935 214.6727431 -0.28062414 222.67581749 -0.30631447 C229.49694815 -0.32816111 236.31792202 -0.33600415 243.13908371 -0.32634769 C246.61101455 -0.32184253 250.08262288 -0.32346386 253.55450821 -0.34310913 C272.45084783 -0.43246006 290.98334009 0.25137488 308.59577942 7.83467102 C309.41352844 8.17498352 310.23127747 8.51529602 311.07380676 8.86592102 C322.95342903 13.96546619 333.47580848 20.71833034 343.28327942 29.14717102 C343.96648254 29.69760071 344.64968567 30.2480304 345.35359192 30.81513977 C351.15051538 35.60044325 355.69454652 41.21972167 360.28327942 47.14717102 C360.96519348 48.00181946 361.64710754 48.8564679 362.34968567 49.73701477 C370.12056984 59.84980925 375.47690161 71.12177602 379.59577942 83.14717102 C379.82603821 83.80918518 380.056297 84.47119934 380.29353333 85.15327454 C385.60212201 101.55615146 385.72863858 117.64956287 385.69011247 134.73576498 C385.68533207 138.31601798 385.69793325 141.89621977 385.70812988 145.47645569 C385.72522975 152.47009948 385.72617622 159.46365307 385.72091698 166.45731232 C385.71685698 172.14898759 385.71834043 177.84063645 385.72366524 183.53231049 C385.72441366 184.34587512 385.72516208 185.15943975 385.72593318 185.99765785 C385.72746484 187.65103069 385.72900319 189.30440351 385.73054815 190.95777634 C385.74424169 206.42506426 385.73885804 221.89230144 385.72736294 237.35958818 C385.71743713 251.46800396 385.73036555 265.57628847 385.75429713 279.68468401 C385.77875996 294.21726019 385.78827822 308.74977542 385.7816444 323.28237176 C385.77816767 331.42282698 385.78028108 339.5631814 385.79789543 347.70362091 C385.81270781 354.63434316 385.81313631 361.56489363 385.79582452 368.49561283 C385.78738507 372.02227329 385.78498855 375.5486281 385.80047607 379.07527161 C385.86601031 397.94739288 385.03569548 416.25984285 378.03327942 434.02217102 C377.73590881 434.79770325 377.43853821 435.57323547 377.13215637 436.37226868 C372.13827092 448.97322488 364.83030217 459.70548805 356.28327942 470.14717102 C355.65292786 470.92060852 355.02257629 471.69404602 354.37312317 472.49092102 C342.76057808 486.24609972 327.54077222 495.82600021 311.28327942 503.14717102 C310.22753723 503.63056946 309.17179504 504.1139679 308.08406067 504.61201477 C289.91733156 512.26483664 271.10786138 512.74257159 251.67904472 512.65541065 C248.16710657 512.64413174 244.65522948 512.6562981 241.14329529 512.66525269 C234.29320893 512.6790723 227.44330888 512.67171424 220.59323165 512.6565771 C212.59437119 512.63958421 204.59555542 512.6429437 196.59668246 512.64667118 C182.31509413 512.6525287 168.0335944 512.63845943 153.75202942 512.61372375 C139.93233422 512.58979118 126.11275725 512.58272924 112.29304504 512.59321594 C97.19362688 512.6046534 82.09426317 512.60652177 66.99484563 512.59211785 C65.38167271 512.59059221 63.76849978 512.58907185 62.15532684 512.58755684 C61.36188601 512.58679902 60.56844518 512.58604121 59.75096069 512.58526043 C54.19078972 512.58054083 48.63064329 512.5823523 43.07047272 512.58662224 C36.28686899 512.59157455 29.50337648 512.58545067 22.71979806 512.56572794 C19.26656926 512.55593141 15.81350894 512.550667 12.36027145 512.55862045 C-24.95421597 512.61829692 -56.11011123 503.48295291 -83.20109558 476.69013977 C-111.15094815 448.43648446 -119.21062448 415.9989259 -119.12355363 377.44251144 C-119.11876833 373.86295777 -119.13137855 370.28345506 -119.14157104 366.70391846 C-119.15866096 359.71375386 -119.15961957 352.72367953 -119.15435814 345.73349949 C-119.15029662 340.04470854 -119.15178336 334.35594402 -119.1571064 328.66715431 C-119.15785482 327.85372517 -119.15860324 327.04029603 -119.15937435 326.20221752 C-119.16090602 324.54908622 -119.16244436 322.89595493 -119.16398931 321.24282364 C-119.17767899 305.78220779 -119.17230171 290.32164271 -119.1608041 274.86102805 C-119.15087648 260.75914236 -119.16381055 246.65738797 -119.18773829 232.55552252 C-119.21220089 218.02743473 -119.22171957 203.4994079 -119.21508557 188.97129995 C-119.21160906 180.83421306 -119.21372077 172.69722702 -119.23133659 164.56015587 C-119.24614861 157.63311761 -119.24657783 150.70625122 -119.22926568 143.77921601 C-119.22082636 140.25457381 -119.21842946 136.73023742 -119.23391724 133.20561218 C-119.2994738 114.33821559 -118.46735696 96.02998484 -111.46672058 78.27217102 C-111.16934998 77.49663879 -110.87197937 76.72110657 -110.56559753 75.92207336 C-105.57304764 63.32448714 -98.27640525 52.57542249 -89.71672058 42.14717102 C-89.04769714 41.32346008 -88.37867371 40.49974915 -87.68937683 39.65107727 C-66.24906464 14.35238579 -32.80303238 -0.00552629 0 0 Z " fill="#EECDE2" transform="translate(122.71672058105469,-0.1471710205078125)"/>
<path d="M0 0 C0.94746094 -0.020625 1.89492188 -0.04125 2.87109375 -0.0625 C19.37885582 -0.15282975 34.66202492 7.96396379 46.375 19.25 C58.03034445 31.57425987 61.68394823 44.9684121 64.375 61.25 C64.95000244 61.35884521 65.52500488 61.46769043 66.11743164 61.57983398 C80.62257816 64.52837678 92.65239562 73.28998586 101.1328125 85.33984375 C109.7141583 98.53568681 112.33214531 112.32508989 109.98046875 127.85546875 C109.30077269 130.122584 108.40654743 132.11720599 107.375 134.25 C106.84312877 135.48410745 106.3119489 136.71851297 105.78125 137.953125 C100.04776022 150.77623395 92.38960173 160.19893056 79.375 166.25 C78.69695312 166.61609375 78.01890625 166.9821875 77.3203125 167.359375 C69.96636386 171.30818789 62.92093355 172.55059657 54.66642761 172.51742554 C53.40599867 172.52422221 53.40599867 172.52422221 52.12010652 172.53115618 C49.32374773 172.54374694 46.52758504 172.54218327 43.73120117 172.54052734 C41.71833549 172.54651589 39.70547209 172.55332219 37.69261169 172.56088257 C32.23796301 172.57851587 26.78337712 172.58323681 21.32870269 172.58451414 C17.91739932 172.58593774 14.50611181 172.59021128 11.09481239 172.59550858 C-0.81578964 172.61399958 -12.72634698 172.62218029 -24.63696289 172.62060547 C-35.72394295 172.61940413 -46.81072832 172.64050754 -57.89765912 172.6720928 C-67.42998219 172.69827751 -76.96224174 172.70897185 -86.49460047 172.70769465 C-92.18184713 172.70718569 -97.86892066 172.71283248 -103.55613136 172.73405075 C-108.90701779 172.75347018 -114.25756659 172.75353214 -119.60846519 172.73901749 C-121.56633881 172.73693295 -123.52423377 172.74160901 -125.48207092 172.7537384 C-140.40927805 172.84018894 -152.81328721 171.24201858 -164.3125 160.8125 C-165.075625 159.966875 -165.83875 159.12125 -166.625 158.25 C-167.470625 157.321875 -168.31625 156.39375 -169.1875 155.4375 C-177.20835609 145.60060102 -178.86834552 133.59331265 -177.625 121.25 C-175.08372786 109.53993347 -168.10922661 100.33518109 -158.625 93.25 C-152.0334507 89.25 -152.0334507 89.25 -148.625 89.25 C-148.67720703 88.15945313 -148.67720703 88.15945313 -148.73046875 87.046875 C-149.15714016 71.19907984 -144.02352944 56.59892651 -133.3125 44.8125 C-121.84697776 32.78319589 -107.30737112 25.51583458 -90.625 24.875 C-78.72928751 25.08418603 -66.85046997 28.11974282 -56.625 34.25 C-56.356875 33.51265625 -56.08875 32.7753125 -55.8125 32.015625 C-50.82857515 20.40832633 -38.84771316 10.53127678 -27.625 5.25 C-23.34209761 3.70518434 -19.02579446 2.41281155 -14.625 1.25 C-14.00560547 1.073479 -13.38621094 0.89695801 -12.74804688 0.71508789 C-8.56553981 -0.2011582 -4.26447893 0.02265327 0 0 Z " fill="#A578B4" transform="translate(304.625,217.75)"/>
<path d="M0 0 C10.94015097 9.44902566 21.31734518 22.08532286 24.25 36.6875 C24.25 38.0075 24.25 39.3275 24.25 40.6875 C22.94289063 41.36232422 22.94289063 41.36232422 21.609375 42.05078125 C10.57858113 47.93532506 0.97679535 54.9183112 -5.75 65.6875 C-6.94625 65.419375 -8.1425 65.15125 -9.375 64.875 C-10.19871094 64.69582031 -11.02242188 64.51664062 -11.87109375 64.33203125 C-13.91073802 63.87539447 -15.94420599 63.3907579 -17.97265625 62.88671875 C-37.6499574 58.20587259 -55.55162081 61.24046534 -72.75 71.6875 C-84.56187903 79.86612409 -91.90255045 90.23370113 -98.75 102.6875 C-109.38861796 93.30048416 -115.89182769 77.75688416 -116.88720703 63.7578125 C-117.94976325 44.338375 -113.36403515 24.98795177 -100.1875 10.125 C-98.71957177 8.63467964 -97.24140741 7.15432377 -95.75 5.6875 C-95.21117187 5.06746094 -94.67234375 4.44742188 -94.1171875 3.80859375 C-70.53839934 -22.67311054 -26.16830002 -20.61201714 0 0 Z " fill="#9870B0" transform="translate(250.75,174.3125)"/>
<path d="M0 0 C4.37217674 1.74509072 5.8528615 5.40970208 8.0859375 9.39453125 C8.54871094 10.16732422 9.01148438 10.94011719 9.48828125 11.73632812 C12.78555124 17.45979828 12.78555124 17.45979828 12.45556641 20.21166992 C11.7109375 22.08203125 11.7109375 22.08203125 9.7109375 24.08203125 C7.421875 24.22265625 7.421875 24.22265625 4.7109375 23.08203125 C2.55624245 20.5385307 0.96896914 17.72934545 -0.6640625 14.83203125 C-1.12683594 14.06761719 -1.58960938 13.30320313 -2.06640625 12.515625 C-5.31275402 6.90477318 -5.31275402 6.90477318 -5.203125 3.09765625 C-3.94535181 0.32410511 -2.98857851 0.10709923 0 0 Z " fill="#9570B0" transform="translate(154.2890625,135.91796875)"/>
<path d="M0 0 C2.375 0.75 2.375 0.75 3.375 1.75 C3.62656269 5.38899175 3.56022226 9.04083673 3.5625 12.6875 C3.57474609 13.71552734 3.58699219 14.74355469 3.59960938 15.80273438 C3.60250977 17.27516602 3.60250977 17.27516602 3.60546875 18.77734375 C3.60957764 19.68218506 3.61368652 20.58702637 3.61791992 21.51928711 C3.375 23.75 3.375 23.75 1.375 25.75 C-1.125 26.0625 -1.125 26.0625 -3.625 25.75 C-6.47299817 21.47800275 -5.95518316 17.77201715 -5.9375 12.75 C-5.95361328 11.83476562 -5.96972656 10.91953125 -5.98632812 9.9765625 C-5.98697266 9.09742188 -5.98761719 8.21828125 -5.98828125 7.3125 C-5.99126221 6.50941406 -5.99424316 5.70632812 -5.99731445 4.87890625 C-5.34430446 1.1449737 -3.76941908 -0.35899229 0 0 Z " fill="#9C74B3" transform="translate(206.625,122.25)"/>
<path d="M0 0 C0.88236328 -0.00257813 1.76472656 -0.00515625 2.67382812 -0.0078125 C3.59744141 -0.00007812 4.52105469 0.00765625 5.47265625 0.015625 C6.39240234 0.00789062 7.31214844 0.00015625 8.25976562 -0.0078125 C9.58524414 -0.00394531 9.58524414 -0.00394531 10.9375 0 C11.74695068 0.00225586 12.55640137 0.00451172 13.39038086 0.00683594 C15.53515625 0.265625 15.53515625 0.265625 18.53515625 2.265625 C18.84765625 4.765625 18.84765625 4.765625 18.53515625 7.265625 C16.00461288 9.79616837 15.09966743 9.52245729 11.59765625 9.53125 C10.62054688 9.53382813 9.6434375 9.53640625 8.63671875 9.5390625 C7.61320312 9.53132812 6.5896875 9.52359375 5.53515625 9.515625 C4.51164062 9.52335938 3.488125 9.53109375 2.43359375 9.5390625 C1.45648438 9.53648437 0.479375 9.53390625 -0.52734375 9.53125 C-1.42582031 9.52899414 -2.32429688 9.52673828 -3.25 9.52441406 C-5.46484375 9.265625 -5.46484375 9.265625 -7.46484375 7.265625 C-6.92328989 1.85008637 -5.43050746 0.01515541 0 0 Z " fill="#8C6AAD" transform="translate(104.46484375,225.734375)"/>
<path d="M0 0 C4.55555556 0.55555556 4.55555556 0.55555556 6 2 C5.65922284 7.5845727 4.06925202 11.14197561 1.0625 15.8125 C0.70220703 16.38419922 0.34191406 16.95589844 -0.02929688 17.54492188 C-1.54297506 19.91718732 -3.00492085 22.00492085 -5 24 C-9.55555556 23.44444444 -9.55555556 23.44444444 -11 22 C-10.65922284 16.4154273 -9.06925202 12.85802439 -6.0625 8.1875 C-5.70220703 7.61580078 -5.34191406 7.04410156 -4.97070312 6.45507812 C-3.45702494 4.08281268 -1.99507915 1.99507915 0 0 Z " fill="#A478B5" transform="translate(256,136)"/>
<path d="M0 0 C0.66 0.66 1.32 1.32 2 2 C1.84984399 5.11823984 1.51118886 6.53378699 -0.8203125 8.66015625 C-1.96113281 9.35431641 -1.96113281 9.35431641 -3.125 10.0625 C-3.93710938 10.56136719 -4.74921875 11.06023437 -5.5859375 11.57421875 C-6.38257812 12.04472656 -7.17921875 12.51523437 -8 13 C-8.65226562 13.41894531 -9.30453125 13.83789062 -9.9765625 14.26953125 C-13.39650577 16.40134611 -15.94815036 17.6946028 -20 17 C-20.66 16.34 -21.32 15.68 -22 15 C-21.84984399 11.88176016 -21.51118886 10.46621301 -19.1796875 8.33984375 C-18.41914062 7.87707031 -17.65859375 7.41429687 -16.875 6.9375 C-16.06289062 6.43863281 -15.25078125 5.93976563 -14.4140625 5.42578125 C-13.61742188 4.95527344 -12.82078125 4.48476563 -12 4 C-11.34773438 3.58105469 -10.69546875 3.16210938 -10.0234375 2.73046875 C-6.60349423 0.59865389 -4.05184964 -0.6946028 0 0 Z " fill="#8E6BAE" transform="translate(133,270)"/>
<path d="M0 0 C3.90569225 1.13871681 7.13524932 3.01287604 10.6171875 5.0859375 C11.30167969 5.46878906 11.98617187 5.85164062 12.69140625 6.24609375 C17.58865055 9.14565028 17.58865055 9.14565028 18.9453125 12.5078125 C18.8671875 14.8359375 18.8671875 14.8359375 16.8671875 16.8359375 C11.2143872 17.66501488 7.69485971 15.50497278 3.0546875 12.6484375 C2.37470703 12.26107422 1.69472656 11.87371094 0.99414062 11.47460938 C-3.86364317 8.54444069 -3.86364317 8.54444069 -5.15234375 5.15234375 C-5.1328125 2.8359375 -5.1328125 2.8359375 -4.0078125 0.9609375 C-2.1328125 -0.1640625 -2.1328125 -0.1640625 0 0 Z " fill="#8F6BAE" transform="translate(116.1328125,174.1640625)"/>
<path d="M0 0 C1 1 1 1 1.3515625 3.3359375 C1 6 1 6 -0.9765625 7.9140625 C-1.85054688 8.47867188 -2.72453125 9.04328125 -3.625 9.625 C-4.54023438 10.21667969 -5.45546875 10.80835938 -6.3984375 11.41796875 C-11.490037 14.51421169 -14.90597709 16.56688585 -21 16 C-22 15 -22 15 -22.375 12.6875 C-22 10 -22 10 -19.8515625 8.0703125 C-16.96367304 5.97362563 -14.05235548 4.03682252 -11 2.1875 C-9.989375 1.56230469 -8.97875 0.93710938 -7.9375 0.29296875 C-4.66527157 -1.14733392 -3.32810571 -1.15889395 0 0 Z " fill="#A97BB6" transform="translate(299,175)"/>
</svg>
